<svg xmlns="http://www.w3.org/2000/svg" viewBox="0 0 100 100">
  <defs>
    <linearGradient id="bg" x1="0" y1="0" x2="0" y2="1">
      <stop offset="0%" stop-color="#d9b36f"/>
      <stop offset="100%" stop-color="#b48b4f"/>
    </linearGradient>
    <linearGradient id="stone" x1="0" y1="0" x2="1" y2="1">
      <stop offset="0%" stop-color="#f2ece0"/>
      <stop offset="100%" stop-color="#75614e"/>
    </linearGradient>
    <linearGradient id="roof" x1="0" y1="0" x2="0" y2="1">
      <stop offset="0%" stop-color="#a35d40"/>
      <stop offset="100%" stop-color="#72402a"/>
    </linearGradient>
  </defs>
  <rect width="100" height="100" fill="url(#bg)"/>
  <rect x="10" y="72" width="80" height="10" rx="3" fill="#7f6041" opacity="0.48"/>
  <rect x="14" y="42" width="16" height="30" fill="#786350"/>
  <rect x="34" y="34" width="18" height="38" fill="#96806a"/>
  <rect x="56" y="40" width="18" height="32" fill="#6e5946"/>
  <polygon points="14,42 22,32 30,42" fill="url(#roof)"/>
  <polygon points="34,34 43,24 52,34" fill="url(#roof)"/>
  <polygon points="56,40 65,30 74,40" fill="url(#roof)"/>
  <rect x="19" y="50" width="4" height="8" fill="url(#stone)"/>
  <rect x="41" y="44" width="4" height="10" fill="url(#stone)"/>
  <rect x="63" y="49" width="4" height="9" fill="url(#stone)"/>
  <path d="M4 90 H96" stroke="#f6e6c2" stroke-width="2" opacity="0.38"/>
</svg>
