<svg xmlns="http://www.w3.org/2000/svg" viewBox="0 0 100 100">
  <defs>
    <linearGradient id="bg" x1="0" y1="0" x2="0" y2="1">
      <stop offset="0%" stop-color="#d8b26e"/>
      <stop offset="100%" stop-color="#b68d51"/>
    </linearGradient>
    <linearGradient id="stone" x1="0" y1="0" x2="1" y2="1">
      <stop offset="0%" stop-color="#f4ede0"/>
      <stop offset="100%" stop-color="#786350"/>
    </linearGradient>
    <linearGradient id="roof" x1="0" y1="0" x2="0" y2="1">
      <stop offset="0%" stop-color="#9a5a3c"/>
      <stop offset="100%" stop-color="#6d3f2a"/>
    </linearGradient>
  </defs>
  <rect width="100" height="100" fill="url(#bg)"/>
  <rect x="10" y="70" width="80" height="12" rx="4" fill="#8a6745" opacity="0.5"/>
  <g opacity="0.98">
    <rect x="16" y="46" width="16" height="26" fill="#7d6653"/>
    <rect x="36" y="34" width="18" height="38" fill="#9b836c"/>
    <rect x="58" y="42" width="18" height="30" fill="#6f5b48"/>
    <polygon points="16,46 24,36 32,46" fill="url(#roof)"/>
    <polygon points="36,34 45,24 54,34" fill="url(#roof)"/>
    <polygon points="58,42 67,31 76,42" fill="url(#roof)"/>
    <rect x="21" y="54" width="4" height="7" fill="url(#stone)"/>
    <rect x="42" y="46" width="4" height="10" fill="url(#stone)"/>
    <rect x="65" y="51" width="4" height="9" fill="url(#stone)"/>
  </g>
  <rect x="0" y="0" width="100" height="100" fill="none" stroke="#76573c" stroke-width="2" opacity="0.45"/>
  <path d="M8 90 H92" stroke="#f6e6c2" stroke-width="2" opacity="0.45"/>
  <path d="M12 18 H88" stroke="#f6e6c2" stroke-width="1.5" opacity="0.25"/>
</svg>
