<svg xmlns="http://www.w3.org/2000/svg" viewBox="0 0 100 100">
  <defs>
    <linearGradient id="bg" x1="0" y1="0" x2="0" y2="1">
      <stop offset="0%" stop-color="#a09b95"/>
      <stop offset="100%" stop-color="#7f7a73"/>
    </linearGradient>
    <linearGradient id="rock" x1="0" y1="0" x2="1" y2="1">
      <stop offset="0%" stop-color="#d2d0cb"/>
      <stop offset="100%" stop-color="#6e6a65"/>
    </linearGradient>
  </defs>
  <rect width="100" height="100" fill="url(#bg)"/>
  <path d="M0 84 L18 50 L36 66 L53 38 L74 60 L100 42 L100 100 L0 100 Z" fill="#6b6762" opacity="0.6"/>
  <path d="M8 84 L32 38 L55 62 L72 30 L95 56 L100 48 L100 100 L0 100 Z" fill="url(#rock)"/>
  <path d="M20 50 L32 38 L41 50 L36 56 Z" fill="#f3f1ed" opacity="0.9"/>
  <path d="M61 49 L72 30 L83 46 L78 51 Z" fill="#f3f1ed" opacity="0.9"/>
  <path d="M0 90 C20 82 36 82 52 90 C68 98 84 98 100 90" fill="none" stroke="#56524d" stroke-width="2" opacity="0.45"/>
</svg>
