<svg xmlns="http://www.w3.org/2000/svg" viewBox="0 0 100 100">
  <defs>
    <linearGradient id="bg" x1="0" y1="0" x2="0" y2="1">
      <stop offset="0%" stop-color="#9f9a94"/>
      <stop offset="100%" stop-color="#7d7871"/>
    </linearGradient>
    <linearGradient id="rock" x1="0" y1="0" x2="1" y2="1">
      <stop offset="0%" stop-color="#e0ddd8"/>
      <stop offset="100%" stop-color="#6c6862"/>
    </linearGradient>
  </defs>
  <rect width="100" height="100" fill="url(#bg)"/>
  <path d="M0 84 L18 62 L34 74 L52 40 L74 58 L92 34 L100 44 L100 100 L0 100 Z" fill="#69645e" opacity="0.58"/>
  <path d="M0 86 L16 48 L34 66 L50 26 L68 50 L86 38 L100 100 L0 100 Z" fill="url(#rock)"/>
  <path d="M20 54 L32 42 L40 54 L34 60 Z" fill="#f2f0ec" opacity="0.9"/>
  <path d="M58 48 L70 34 L80 46 L74 52 Z" fill="#f2f0ec" opacity="0.9"/>
  <path d="M12 90 C28 84 44 84 60 90 C76 96 88 96 100 90" fill="none" stroke="#57534e" stroke-width="2" opacity="0.36"/>
</svg>
