<svg xmlns="http://www.w3.org/2000/svg" viewBox="0 0 100 100">
  <defs>
    <linearGradient id="bg" x1="0" y1="0" x2="0" y2="1">
      <stop offset="0%" stop-color="#a7a29d"/>
      <stop offset="100%" stop-color="#827d76"/>
    </linearGradient>
    <linearGradient id="rock" x1="0" y1="0" x2="1" y2="1">
      <stop offset="0%" stop-color="#ddd9d3"/>
      <stop offset="100%" stop-color="#69645f"/>
    </linearGradient>
  </defs>
  <rect width="100" height="100" fill="url(#bg)"/>
  <path d="M0 86 L14 56 L34 70 L52 34 L70 58 L88 44 L100 60 L100 100 L0 100 Z" fill="#6d6963" opacity="0.58"/>
  <path d="M0 88 L20 40 L40 64 L58 28 L78 54 L94 36 L100 100 L0 100 Z" fill="url(#rock)"/>
  <path d="M18 50 L30 38 L38 52 L31 58 Z" fill="#f3f1ed" opacity="0.9"/>
  <path d="M54 48 L66 28 L78 46 L70 52 Z" fill="#f3f1ed" opacity="0.9"/>
  <path d="M8 90 C24 82 42 82 58 90 C74 98 88 98 100 90" fill="none" stroke="#5f5b56" stroke-width="2" opacity="0.4"/>
</svg>
