<svg xmlns="http://www.w3.org/2000/svg" viewBox="0 0 100 100">
  <defs>
    <linearGradient id="bg" x1="0" y1="0" x2="0" y2="1">
      <stop offset="0%" stop-color="#e5d6a9"/>
      <stop offset="100%" stop-color="#d0ba81"/>
    </linearGradient>
    <linearGradient id="trail" x1="0" y1="0" x2="1" y2="1">
      <stop offset="0%" stop-color="#9b8352" stop-opacity="0.32"/>
      <stop offset="100%" stop-color="#725c39" stop-opacity="0.08"/>
    </linearGradient>
  </defs>
  <rect width="100" height="100" fill="url(#bg)"/>
  <path d="M0 16 Q20 10 40 16 T80 16 T100 16" fill="none" stroke="#bea36b" stroke-width="2" opacity="0.4"/>
  <path d="M0 38 Q18 32 36 38 T72 38 T100 38" fill="none" stroke="#bea36b" stroke-width="2" opacity="0.32"/>
  <path d="M0 60 Q16 54 32 60 T64 60 T100 60" fill="none" stroke="#bea36b" stroke-width="2" opacity="0.26"/>
  <path d="M0 84 Q22 78 44 84 T88 84 T100 84" fill="none" stroke="#bea36b" stroke-width="2" opacity="0.18"/>
  <path d="M10 74 C20 64 28 64 38 74 C48 64 56 64 66 74" fill="none" stroke="#7e9653" stroke-width="2.6" stroke-linecap="round"/>
  <path d="M58 26 C66 18 74 18 82 26 C90 18 96 18 100 26" fill="none" stroke="url(#trail)" stroke-width="6" stroke-linecap="round" opacity="0.35"/>
</svg>
