<svg xmlns="http://www.w3.org/2000/svg" viewBox="0 0 100 100">
  <defs>
    <linearGradient id="bg" x1="0" y1="0" x2="0" y2="1">
      <stop offset="0%" stop-color="#e2d3a2"/>
      <stop offset="100%" stop-color="#cfbc85"/>
    </linearGradient>
    <linearGradient id="soil" x1="0" y1="0" x2="1" y2="1">
      <stop offset="0%" stop-color="#b49c67" stop-opacity="0.35"/>
      <stop offset="100%" stop-color="#8f774a" stop-opacity="0.15"/>
    </linearGradient>
  </defs>
  <rect width="100" height="100" fill="url(#bg)"/>
  <path d="M0 18 Q20 12 36 18 T72 18 T100 18" fill="none" stroke="#bda16b" stroke-width="2" stroke-linecap="round" opacity="0.45"/>
  <path d="M0 42 Q16 36 32 42 T64 42 T100 42" fill="none" stroke="#bda16b" stroke-width="2" stroke-linecap="round" opacity="0.35"/>
  <path d="M0 66 Q24 60 44 66 T84 66 T100 66" fill="none" stroke="#bda16b" stroke-width="2" stroke-linecap="round" opacity="0.3"/>
  <path d="M8 82 C14 72 20 72 26 82 C32 72 38 72 44 82" fill="none" stroke="#7e9653" stroke-width="2.5" stroke-linecap="round"/>
  <path d="M54 78 C60 68 66 68 72 78 C78 68 84 68 90 78" fill="none" stroke="#7e9653" stroke-width="2.5" stroke-linecap="round"/>
  <ellipse cx="22" cy="26" rx="8" ry="5" fill="url(#soil)" opacity="0.5"/>
  <ellipse cx="70" cy="54" rx="12" ry="7" fill="url(#soil)" opacity="0.45"/>
</svg>
