<svg xmlns="http://www.w3.org/2000/svg" viewBox="0 0 100 100">
  <defs>
    <linearGradient id="water" x1="0" y1="0" x2="0" y2="1">
      <stop offset="0%" stop-color="#7faac0"/>
      <stop offset="100%" stop-color="#4d7d98"/>
    </linearGradient>
    <linearGradient id="highlight" x1="0" y1="0" x2="1" y2="1">
      <stop offset="0%" stop-color="#eef8fb" stop-opacity="0.85"/>
      <stop offset="100%" stop-color="#eef8fb" stop-opacity="0"/>
    </linearGradient>
  </defs>
  <rect width="100" height="100" fill="url(#water)"/>
  <path d="M0 62 C12 54 26 54 38 62 S64 70 76 62 S88 52 100 48" fill="none" stroke="#e5f3f8" stroke-width="4" stroke-linecap="round" opacity="0.85"/>
  <path d="M0 44 C12 38 24 38 36 44 S60 50 72 44 S88 36 100 32" fill="none" stroke="#cfe5ef" stroke-width="2.5" stroke-linecap="round" opacity="0.65"/>
  <path d="M0 78 C14 72 26 72 38 78 S62 84 76 78 S88 70 100 66" fill="none" stroke="#bfd8e4" stroke-width="2.5" stroke-linecap="round" opacity="0.55"/>
  <path d="M8 14 C22 18 34 22 46 30 C60 40 72 46 92 52" fill="none" stroke="url(#highlight)" stroke-width="8" stroke-linecap="round" opacity="0.45"/>
  <path d="M14 82 C28 76 40 74 52 80 C64 86 76 86 90 80" fill="none" stroke="url(#highlight)" stroke-width="5" stroke-linecap="round" opacity="0.25"/>
</svg>
