<svg xmlns="http://www.w3.org/2000/svg" viewBox="0 0 100 100">
  <defs>
    <linearGradient id="road" x1="0" y1="0" x2="0" y2="1">
      <stop offset="0%" stop-color="#78624a"/>
      <stop offset="100%" stop-color="#5d4934"/>
    </linearGradient>
    <linearGradient id="edge" x1="0" y1="0" x2="1" y2="1">
      <stop offset="0%" stop-color="#d9c49d" stop-opacity="0.9"/>
      <stop offset="100%" stop-color="#d9c49d" stop-opacity="0"/>
    </linearGradient>
  </defs>
  <rect width="100" height="100" fill="none"/>
  <path d="M0 66 C20 62 34 56 50 50 C66 44 80 38 100 34" fill="none" stroke="url(#road)" stroke-width="13" stroke-linecap="round" stroke-linejoin="round" opacity="0.88"/>
  <path d="M0 66 C20 62 34 56 50 50 C66 44 80 38 100 34" fill="none" stroke="#c9a46a" stroke-width="2" stroke-linecap="round" stroke-linejoin="round" opacity="0.28"/>
  <path d="M12 72 C30 68 46 60 60 54 C76 48 88 42 100 38" fill="none" stroke="#f4ebd2" stroke-width="1.5" stroke-linecap="round" opacity="0.18"/>
  <path d="M38 18 C48 28 56 40 64 56" fill="none" stroke="url(#edge)" stroke-width="6" stroke-linecap="round" opacity="0.26"/>
  <path d="M68 22 C76 30 84 42 92 56" fill="none" stroke="url(#edge)" stroke-width="6" stroke-linecap="round" opacity="0.26"/>
</svg>
