<svg xmlns="http://www.w3.org/2000/svg" viewBox="0 0 100 100">
  <defs>
    <linearGradient id="sand" x1="0" y1="0" x2="0" y2="1">
      <stop offset="0%" stop-color="#e7d3a0"/>
      <stop offset="100%" stop-color="#c7ad74"/>
    </linearGradient>
    <linearGradient id="water" x1="0" y1="0" x2="0" y2="1">
      <stop offset="0%" stop-color="#83b8cc"/>
      <stop offset="100%" stop-color="#4d7f9a"/>
    </linearGradient>
    <linearGradient id="foam" x1="0" y1="0" x2="1" y2="1">
      <stop offset="0%" stop-color="#f7fbfd" stop-opacity="0.9"/>
      <stop offset="100%" stop-color="#f7fbfd" stop-opacity="0"/>
    </linearGradient>
  </defs>
  <rect width="100" height="100" fill="url(#water)"/>
  <path d="M0 66 C16 58 32 58 48 66 S80 74 100 66 L100 100 L0 100 Z" fill="url(#sand)"/>
  <path d="M0 63 C18 56 34 56 50 63 S82 71 100 63" fill="none" stroke="#f7f4ea" stroke-width="4" stroke-linecap="round" opacity="0.9"/>
  <path d="M0 56 C14 50 28 50 42 56 S70 62 100 56" fill="none" stroke="#d8eef5" stroke-width="2.5" stroke-linecap="round" opacity="0.55"/>
  <path d="M10 70 C18 64 26 64 34 70 C42 76 50 76 58 70" fill="none" stroke="#f6edd4" stroke-width="2" stroke-linecap="round" opacity="0.55"/>
  <path d="M38 86 C48 80 58 80 68 86" fill="none" stroke="#f6edd4" stroke-width="2" stroke-linecap="round" opacity="0.45"/>
  <path d="M72 22 C82 18 90 18 98 22" fill="none" stroke="url(#foam)" stroke-width="5" stroke-linecap="round" opacity="0.35"/>
</svg>
