<svg xmlns="http://www.w3.org/2000/svg" viewBox="0 0 100 100">
  <defs>
    <linearGradient id="bg" x1="0" y1="0" x2="0" y2="1">
      <stop offset="0%" stop-color="#7fb0c5"/>
      <stop offset="100%" stop-color="#4c7f98"/>
    </linearGradient>
    <linearGradient id="shine" x1="0" y1="0" x2="1" y2="1">
      <stop offset="0%" stop-color="#d6eef6" stop-opacity="0.8"/>
      <stop offset="100%" stop-color="#d6eef6" stop-opacity="0"/>
    </linearGradient>
  </defs>
  <rect width="100" height="100" fill="url(#bg)"/>
  <path d="M0 26 C10 20 22 20 32 26 S54 32 64 26 S86 20 100 26" fill="none" stroke="#d8eef5" stroke-width="3" stroke-linecap="round" opacity="0.8"/>
  <path d="M0 50 C10 44 22 44 32 50 S54 56 64 50 S86 44 100 50" fill="none" stroke="#c7e5ef" stroke-width="3" stroke-linecap="round" opacity="0.7"/>
  <path d="M0 74 C10 68 22 68 32 74 S54 80 64 74 S86 68 100 74" fill="none" stroke="#b5dae7" stroke-width="3" stroke-linecap="round" opacity="0.65"/>
  <path d="M8 8 C34 14 58 20 92 12 L100 28 C68 30 38 26 4 18 Z" fill="url(#shine)" opacity="0.5"/>
  <circle cx="72" cy="70" r="10" fill="#e0f2f8" opacity="0.08"/>
</svg>
