<svg xmlns="http://www.w3.org/2000/svg" viewBox="0 0 100 100">
  <defs>
    <linearGradient id="bg" x1="0" y1="0" x2="0" y2="1">
      <stop offset="0%" stop-color="#84b5c9"/>
      <stop offset="100%" stop-color="#4b7a95"/>
    </linearGradient>
    <linearGradient id="surface" x1="0" y1="0" x2="1" y2="1">
      <stop offset="0%" stop-color="#f4fbfd" stop-opacity="0.7"/>
      <stop offset="100%" stop-color="#f4fbfd" stop-opacity="0"/>
    </linearGradient>
  </defs>
  <rect width="100" height="100" fill="url(#bg)"/>
  <path d="M0 28 C10 22 22 22 32 28 S54 34 64 28 S86 22 100 28" fill="none" stroke="#d6edf4" stroke-width="3" stroke-linecap="round" opacity="0.82"/>
  <path d="M0 52 C12 46 24 46 36 52 S60 58 72 52 S88 46 100 52" fill="none" stroke="#bfdce8" stroke-width="3" stroke-linecap="round" opacity="0.7"/>
  <path d="M0 76 C12 70 24 70 36 76 S60 82 72 76 S88 70 100 76" fill="none" stroke="#a9ccdb" stroke-width="3" stroke-linecap="round" opacity="0.58"/>
  <path d="M8 10 C20 16 34 18 44 26 C56 36 70 38 94 44" fill="none" stroke="url(#surface)" stroke-width="6" stroke-linecap="round" opacity="0.38"/>
  <path d="M18 88 C30 82 42 82 54 88 C66 94 78 94 90 88" fill="none" stroke="#eef7fa" stroke-width="2" stroke-linecap="round" opacity="0.28"/>
</svg>
