<svg xmlns="http://www.w3.org/2000/svg" viewBox="0 0 100 100">
  <defs>
    <linearGradient id="bg" x1="0" y1="0" x2="0" y2="1">
      <stop offset="0%" stop-color="#7baec5"/>
      <stop offset="100%" stop-color="#507e99"/>
    </linearGradient>
    <linearGradient id="glow" x1="0" y1="0" x2="1" y2="1">
      <stop offset="0%" stop-color="#f0f9fc" stop-opacity="0.75"/>
      <stop offset="100%" stop-color="#f0f9fc" stop-opacity="0"/>
    </linearGradient>
  </defs>
  <rect width="100" height="100" fill="url(#bg)"/>
  <path d="M0 18 C12 12 24 12 36 18 S60 24 72 18 S88 12 100 18" fill="none" stroke="#dff1f6" stroke-width="3" stroke-linecap="round" opacity="0.75"/>
  <path d="M0 42 C14 36 28 36 42 42 S70 48 84 42 S94 36 100 42" fill="none" stroke="#c9e4ee" stroke-width="3" stroke-linecap="round" opacity="0.68"/>
  <path d="M0 66 C12 60 24 60 36 66 S60 72 72 66 S88 60 100 66" fill="none" stroke="#b5d7e4" stroke-width="3" stroke-linecap="round" opacity="0.58"/>
  <path d="M12 86 C24 80 36 80 48 86 C60 92 72 92 84 86" fill="none" stroke="#e7f3f8" stroke-width="2" stroke-linecap="round" opacity="0.35"/>
  <path d="M16 10 C28 14 40 20 54 26 C66 32 78 36 96 40" fill="none" stroke="url(#glow)" stroke-width="7" stroke-linecap="round" opacity="0.32"/>
</svg>
